<svg xmlns="http://www.w3.org/2000/svg" aria-hidden="true" style="height:0;overflow:hidden;position:absolute;version:1;width:0">
  <defs>
    <symbol id="icon-cw" viewBox="0 0 20 20">
      <title>
        cw
      </title>
      <path d="M19.3 10h-2.4v-0.2c-0.1-4.4-3.7-8-8.2-8-4.5 0-8.2 3.7-8.2 8.2s3.7 8.2 8.2 8.2c1.9 0 3.6-0.6 5-1.7l-1.4-1.5c-1 0.7-2.3 1.2-3.6 1.2-3.4 0-6.1-2.8-6.1-6.1s2.7-6.1 6.1-6.1c3.3 0 6 2.6 6.1 5.9v0.2h-2.7l3.5 3.9 3.6-3.9z"/>
    </symbol>
    <symbol id="facebook" viewBox="0 0 20 20">
      <title>
        facebook
      </title>
      <path d="M18.004,1c0.273,0,0.508,0.098,0.703,0.293S19,1.723,19,1.996v16.008c0,0.273-0.098,0.508-0.293,0.703S18.277,19,18.004,19
	h-4.582v-6.973h2.332l0.352-2.719h-2.684V7.574c0-0.437,0.092-0.766,0.275-0.984c0.184-0.219,0.541-0.328,1.072-0.328l1.43-0.012
	V3.824c-0.492-0.07-1.188-0.105-2.086-0.105c-1.063,0-1.912,0.313-2.549,0.938c-0.637,0.625-0.955,1.508-0.955,2.648v2.004H8.266
	v2.719h2.344V19H1.996c-0.273,0-0.508-0.098-0.703-0.293S1,18.277,1,18.004V1.996c0-0.273,0.098-0.508,0.293-0.703S1.723,1,1.996,1
	H18.004z"/>
    </symbol>
     <symbol id="instagram" viewBox="0 0 20 20">
      <title>
        instagram
      </title>
      <path d="M12.857,10c0-0.789-0.279-1.462-0.837-2.02S10.789,7.143,10,7.143S8.538,7.422,7.98,7.98S7.143,9.211,7.143,10
	s0.279,1.462,0.837,2.02s1.231,0.837,2.02,0.837s1.462-0.279,2.02-0.837S12.857,10.789,12.857,10z M14.397,10
	c0,1.22-0.428,2.258-1.283,3.114c-0.856,0.856-1.894,1.283-3.114,1.283s-2.258-0.428-3.114-1.283C6.031,12.258,5.603,11.22,5.603,10
	s0.428-2.258,1.283-3.114S8.78,5.603,10,5.603s2.258,0.428,3.114,1.283C13.969,7.742,14.397,8.78,14.397,10z M15.603,5.424
	c0,0.283-0.1,0.525-0.301,0.725C15.1,6.35,14.859,6.451,14.576,6.451c-0.283,0-0.525-0.1-0.725-0.301
	c-0.201-0.201-0.301-0.443-0.301-0.725s0.1-0.525,0.301-0.725c0.201-0.201,0.443-0.301,0.725-0.301c0.283,0,0.525,0.1,0.725,0.301
	C15.502,4.9,15.603,5.141,15.603,5.424z M10,2.969c-0.052,0-0.337-0.002-0.854-0.006c-0.517-0.004-0.91-0.004-1.177,0
	C7.701,2.967,7.342,2.978,6.892,2.997c-0.45,0.019-0.833,0.056-1.15,0.112C5.426,3.164,5.16,3.233,4.944,3.315
	C4.572,3.464,4.245,3.679,3.962,3.962s-0.499,0.61-0.647,0.982C3.233,5.16,3.164,5.426,3.108,5.742
	c-0.056,0.316-0.093,0.699-0.112,1.15c-0.019,0.45-0.03,0.809-0.033,1.077c-0.004,0.268-0.004,0.66,0,1.177
	C2.967,9.663,2.969,9.948,2.969,10s-0.002,0.337-0.006,0.854c-0.004,0.517-0.004,0.91,0,1.177c0.004,0.268,0.015,0.627,0.033,1.077
	c0.019,0.45,0.056,0.833,0.112,1.15s0.125,0.582,0.206,0.798c0.149,0.372,0.365,0.699,0.647,0.982
	c0.283,0.283,0.61,0.499,0.982,0.647c0.216,0.082,0.482,0.151,0.798,0.206c0.316,0.056,0.699,0.093,1.15,0.112
	c0.45,0.019,0.809,0.03,1.077,0.033c0.268,0.004,0.66,0.004,1.177,0c0.517-0.004,0.802-0.006,0.854-0.006s0.337,0.002,0.854,0.006
	c0.517,0.004,0.91,0.004,1.177,0c0.268-0.004,0.627-0.015,1.077-0.033c0.45-0.019,0.833-0.056,1.15-0.112s0.582-0.125,0.798-0.206
	c0.372-0.149,0.699-0.365,0.982-0.647c0.283-0.283,0.499-0.61,0.647-0.982c0.082-0.216,0.151-0.482,0.206-0.798
	s0.093-0.699,0.112-1.15c0.019-0.45,0.03-0.809,0.033-1.077c0.004-0.268,0.004-0.66,0-1.177c-0.004-0.517-0.006-0.802-0.006-0.854
	s0.002-0.337,0.006-0.854c0.004-0.517,0.004-0.91,0-1.177c-0.004-0.268-0.015-0.627-0.033-1.077c-0.019-0.45-0.056-0.833-0.112-1.15
	c-0.056-0.316-0.125-0.582-0.206-0.798c-0.149-0.372-0.365-0.699-0.647-0.982c-0.283-0.283-0.61-0.499-0.982-0.647
	c-0.216-0.082-0.482-0.151-0.798-0.206s-0.699-0.093-1.15-0.112c-0.45-0.019-0.809-0.03-1.077-0.033
	c-0.268-0.004-0.66-0.004-1.177,0C10.337,2.967,10.052,2.969,10,2.969z M18.571,10c0,1.704-0.019,2.883-0.056,3.538
	c-0.074,1.548-0.536,2.746-1.384,3.594c-0.848,0.848-2.046,1.31-3.594,1.384c-0.655,0.037-1.834,0.056-3.538,0.056
	s-2.883-0.019-3.538-0.056c-1.548-0.074-2.746-0.536-3.594-1.384c-0.848-0.848-1.31-2.046-1.384-3.594
	C1.447,12.883,1.429,11.704,1.429,10s0.019-2.883,0.056-3.538C1.559,4.914,2.02,3.717,2.868,2.868s2.046-1.31,3.594-1.384
	C7.117,1.447,8.296,1.429,10,1.429s2.883,0.019,3.538,0.056c1.548,0.074,2.746,0.536,3.594,1.384
	c0.848,0.848,1.31,2.046,1.384,3.594C18.553,7.117,18.571,8.296,18.571,10z"/>
    </symbol>
    <symbol id="youtube" viewBox="0 0 20 20">
      <title>
        youtube
      </title>
      <path d="M12.266,13.884v2.355c0,0.499-0.145,0.748-0.435,0.748c-0.171,0-0.339-0.082-0.502-0.246v-3.359
	c0.164-0.164,0.331-0.246,0.502-0.246C12.121,13.136,12.266,13.385,12.266,13.884z M16.038,13.895v0.513h-1.004v-0.513
	c0-0.506,0.167-0.759,0.502-0.759S16.038,13.389,16.038,13.895z M5.257,11.462h1.194v-1.049H2.969v1.049h1.172v6.35h1.116V11.462z
	 M8.471,17.813h0.993v-5.513H8.471v4.219c-0.223,0.313-0.435,0.469-0.636,0.469c-0.134,0-0.212-0.078-0.234-0.234
	C7.593,16.73,7.589,16.6,7.589,16.362v-4.062H6.596v4.364c0,0.365,0.03,0.636,0.089,0.815c0.089,0.275,0.305,0.413,0.647,0.413
	c0.357,0,0.737-0.227,1.138-0.681V17.813z M13.259,16.161v-2.199c0-0.543-0.033-0.911-0.1-1.105
	c-0.126-0.417-0.391-0.625-0.792-0.625c-0.372,0-0.718,0.201-1.038,0.603v-2.422h-0.993v7.4h0.993v-0.536
	c0.335,0.409,0.681,0.614,1.038,0.614c0.402,0,0.666-0.205,0.792-0.614C13.225,17.076,13.259,16.704,13.259,16.161z M17.031,16.049
	v-0.145h-1.016c0,0.379-0.007,0.606-0.022,0.681c-0.052,0.268-0.201,0.402-0.446,0.402c-0.342,0-0.513-0.257-0.513-0.77v-0.971
	h1.998v-1.15c0-0.588-0.1-1.019-0.301-1.295c-0.29-0.379-0.685-0.569-1.183-0.569c-0.506,0-0.904,0.19-1.194,0.569
	c-0.208,0.275-0.313,0.707-0.313,1.295v1.931c0,0.588,0.108,1.019,0.324,1.295c0.29,0.379,0.692,0.569,1.205,0.569
	c0.536,0,0.938-0.197,1.205-0.592c0.134-0.201,0.212-0.402,0.234-0.603C17.024,16.629,17.031,16.414,17.031,16.049z M10.246,5.859
	V3.516c0-0.513-0.16-0.77-0.48-0.77s-0.48,0.257-0.48,0.77v2.344c0,0.521,0.16,0.781,0.48,0.781S10.246,6.38,10.246,5.859z
	 M18.27,14.241c0,1.741-0.097,3.043-0.29,3.906c-0.104,0.439-0.32,0.807-0.647,1.105c-0.327,0.298-0.707,0.469-1.138,0.513
	C14.825,19.922,12.76,20,10,20s-4.825-0.078-6.194-0.234c-0.432-0.045-0.813-0.216-1.144-0.513
	c-0.331-0.298-0.545-0.666-0.642-1.105c-0.193-0.833-0.29-2.135-0.29-3.906c0-1.741,0.097-3.043,0.29-3.906
	C2.124,9.896,2.34,9.528,2.667,9.23c0.327-0.298,0.711-0.472,1.15-0.525C5.179,8.557,7.24,8.482,10,8.482s4.825,0.074,6.194,0.223
	c0.432,0.052,0.813,0.227,1.144,0.525c0.331,0.298,0.545,0.666,0.642,1.105C18.173,11.168,18.27,12.47,18.27,14.241z M7.132,0H8.27
	L6.92,4.453v3.025H5.804V4.453C5.699,3.903,5.472,3.114,5.123,2.087C4.847,1.321,4.606,0.625,4.397,0H5.58l0.792,2.935L7.132,0z
	 M11.261,3.717V5.67c0,0.603-0.104,1.042-0.313,1.317c-0.283,0.379-0.677,0.569-1.183,0.569c-0.499,0-0.889-0.19-1.172-0.569
	C8.385,6.704,8.281,6.265,8.281,5.67V3.717c0-0.595,0.104-1.031,0.313-1.306c0.283-0.379,0.673-0.569,1.172-0.569
	c0.506,0,0.9,0.19,1.183,0.569C11.157,2.686,11.261,3.121,11.261,3.717z M15,1.908v5.569h-1.016V6.864
	c-0.394,0.461-0.778,0.692-1.15,0.692c-0.342,0-0.562-0.138-0.658-0.413c-0.06-0.179-0.089-0.458-0.089-0.837V1.908h1.016v4.096
	c0,0.246,0.004,0.376,0.011,0.391c0.022,0.164,0.1,0.246,0.234,0.246c0.201,0,0.413-0.16,0.636-0.48V1.908H15z"/>
    </symbol>
    <symbol id="flickr" viewBox="0 0 20 20">
      <title>
        flickr
      </title>
      <path d="M15.357,1.429c0.885,0,1.642,0.314,2.271,0.943C18.257,3,18.571,3.757,18.571,4.643v10.714c0,0.885-0.314,1.642-0.943,2.271
	c-0.629,0.629-1.386,0.943-2.271,0.943H4.643c-0.885,0-1.642-0.314-2.271-0.943C1.743,17,1.429,16.243,1.429,15.357V4.643
	c0-0.885,0.314-1.642,0.943-2.271s1.386-0.943,2.271-0.943H15.357z M9.219,10c0-0.655-0.231-1.213-0.692-1.674
	C8.065,7.865,7.507,7.634,6.853,7.634S5.64,7.865,5.179,8.326C4.717,8.787,4.487,9.345,4.487,10s0.231,1.213,0.692,1.674
	c0.461,0.461,1.019,0.692,1.674,0.692s1.213-0.231,1.674-0.692S9.219,10.655,9.219,10z M15.513,10c0-0.655-0.231-1.213-0.692-1.674
	c-0.461-0.461-1.019-0.692-1.674-0.692s-1.213,0.231-1.674,0.692C11.012,8.787,10.781,9.345,10.781,10s0.231,1.213,0.692,1.674
	c0.461,0.461,1.019,0.692,1.674,0.692s1.213-0.231,1.674-0.692C15.283,11.213,15.513,10.655,15.513,10z"/>
    </symbol>
    <symbol id="contact" viewBox="0 0 20 20">
      <title>
        contact
      </title>
      <path d="M18.571,16.071V7.5c-0.238,0.268-0.495,0.513-0.77,0.737c-1.994,1.533-3.579,2.79-4.754,3.772
	c-0.379,0.32-0.688,0.569-0.926,0.748c-0.238,0.179-0.56,0.359-0.965,0.541s-0.787,0.273-1.144,0.273H9.989
	c-0.357,0-0.738-0.091-1.144-0.273c-0.406-0.182-0.727-0.363-0.965-0.541c-0.238-0.179-0.547-0.428-0.926-0.748
	c-1.176-0.982-2.76-2.24-4.754-3.772C1.923,8.013,1.667,7.768,1.429,7.5v8.571c0,0.097,0.035,0.18,0.106,0.251
	c0.071,0.071,0.154,0.106,0.251,0.106h16.429c0.097,0,0.18-0.035,0.251-0.106C18.536,16.252,18.571,16.168,18.571,16.071z
	 M18.571,4.342V4.068l-0.006-0.145l-0.033-0.14l-0.061-0.1l-0.1-0.084l-0.156-0.028H1.786c-0.097,0-0.18,0.035-0.251,0.106
	S1.429,3.832,1.429,3.929c0,1.25,0.547,2.307,1.641,3.17c1.436,1.131,2.928,2.31,4.475,3.538c0.045,0.037,0.175,0.147,0.391,0.329
	c0.216,0.182,0.387,0.322,0.513,0.419c0.126,0.097,0.292,0.214,0.497,0.352c0.205,0.138,0.392,0.24,0.564,0.307
	c0.171,0.067,0.331,0.1,0.48,0.1h0.022c0.149,0,0.309-0.033,0.48-0.1c0.171-0.067,0.359-0.169,0.564-0.307
	c0.205-0.138,0.37-0.255,0.497-0.352c0.126-0.097,0.298-0.236,0.513-0.419c0.216-0.182,0.346-0.292,0.391-0.329
	c1.548-1.228,3.039-2.407,4.475-3.538c0.402-0.32,0.776-0.75,1.122-1.289C18.398,5.27,18.571,4.781,18.571,4.342z M20,3.929v12.143
	c0,0.491-0.175,0.911-0.525,1.261s-0.77,0.525-1.261,0.525H1.786c-0.491,0-0.911-0.175-1.261-0.525S0,16.563,0,16.071V3.929
	c0-0.491,0.175-0.911,0.525-1.261s0.77-0.525,1.261-0.525h16.429c0.491,0,0.911,0.175,1.261,0.525S20,3.438,20,3.929z"/>
    </symbol>
  </defs>
</svg>